# xmcd
#
# Track frame offsets:
#	150
#	14335
#	23615
#	37155
#	47605
#	60503
#	75647
#	82761
#	99457
#	108747
#	119024
#	130579
#	132498
#	138697
#	147641
#	155677
#	167898
#	178221
#	188665
#	198008
#	207244
#	213277
#	224500
#	229350
#	242088
#	250017
#	254713
#	259929
#	272613
#	284002
#	291575
#	300637
#
# Disc length: 4086 seconds
#
# Revision: 0
# Processed by: cddbd v1.5.1PL0 Copyright (c) Steve Scherf et al.
# Submitted via: EasyCDDAExtractor 8.2.1.1
#
DISCID=f30ff420
DTITLE=Various Artist - DANCE MIX 2005
DYEAR=2005
DGENRE=вояеутийа
TTITLE0=папаяифоу екема - YOU ARE MY NUMBER ONE
TTITLE1=папаяифоу екема - OK OK
TTITLE2=папаяифоу екема - YOU ARE MY NUMBER ONE VS SHAKE IT
TTITLE3=етси - вяистожояоу йымстамтимос
TTITLE4=намхиытгс циыяцос - CHICULATA
TTITLE5=саялпек - паяалухи вакилас
TTITLE6=ARABIAN DANCE - ARABIAN DANCE
TTITLE7=MASSINO JULIE - I LOVE YOU
TTITLE8=папаяифоу екема - ой
TTITLE9=папаяифоу екема - амапамтгтес йкгсеис REMIX
TTITLE10=биссг амма - выяис то лыяо лоу
TTITLE11=биссг амма - выяис то лыяо лоу LIVE
TTITLE12=бакамтгс - лоу кеипеи то йояитсайи
TTITLE13=лафымайгс циыяцос - жобеяг
TTITLE14=леяйоуяг еиягмг - поу ма жамтасты
TTITLE15=бамдг деспоима - ои выяислемои
TTITLE16=биссг амма - CALL ME еисаи
TTITLE17=яелос амтымгс - валоцекасе
TTITLE18=бакамтгс - йкеисале лафи ема вяомо
TTITLE19=пяытоьактг акйистг - йахе жояа
TTITLE20=мимо - SEXY
TTITLE21=йоййимоу еккг - BYE BYE
TTITLE22=ватфгциаммгс ливакгс - асе ле коипом
TTITLE23=бамдг деспоима - йамто ам ле ацапас
TTITLE24=йаяажытгс йыстас - лика лоу
TTITLE25=цкуйеяиа - оти йи ам цимеи
TTITLE26=пяытоьактг акйистг - о аццекос лоу
TTITLE27=DJ DANCE - DJ DANCE
TTITLE28=бакамтгс - ам де се ды
TTITLE29=биссг амма - евы пехамеи циа сема
TTITLE30=яелос амтымгс - ецы еилаи еды
TTITLE31=OH BABY BABY - OH BABY BABY
EXTD=
EXTT0=
EXTT1=
EXTT2=
EXTT3=
EXTT4=
EXTT5=
EXTT6=
EXTT7=
EXTT8=
EXTT9=
EXTT10=
EXTT11=
EXTT12=
EXTT13=
EXTT14=
EXTT15=
EXTT16=
EXTT17=
EXTT18=
EXTT19=
EXTT20=
EXTT21=
EXTT22=
EXTT23=
EXTT24=
EXTT25=
EXTT26=
EXTT27=
EXTT28=
EXTT29=
EXTT30=
EXTT31=
PLAYORDER=
